<?xml version="1.0" encoding="iso-8859-1"?>
<!-- Uploaded to: SVG Repo, www.svgrepo.com, Generator: SVG Repo Mixer Tools -->
<svg fill="#000000" height="800px" width="800px" version="1.1" id="Layer_1" xmlns="http://www.w3.org/2000/svg" xmlns:xlink="http://www.w3.org/1999/xlink" 
	 viewBox="0 0 512 512" xml:space="preserve">
<g>
	<g>
		<g>
			<path d="M256.009,234.658c-11.755,0-21.333,9.579-21.333,21.333c0,11.755,9.579,21.333,21.333,21.333s21.333-9.579,21.333-21.333
				C277.342,244.237,267.763,234.658,256.009,234.658z"/>
			<path d="M362.526,179.639l12.907-12.907c-0.363-0.512-0.725-1.003-1.109-1.515c-3.52-4.629-7.253-8.939-11.136-12.992
				c-1.088-1.109-2.197-2.219-3.328-3.307c-4.075-3.947-8.427-7.701-13.099-11.243c-0.491-0.384-0.981-0.747-1.493-1.109
				l-12.907,12.907c-42.091,42.091-110.592,42.091-152.704,0l-12.907-12.907c-0.512,0.363-1.003,0.725-1.515,1.109
				c-4.629,3.52-8.939,7.253-12.992,11.136c-1.109,1.088-2.219,2.197-3.307,3.328c-3.947,4.075-7.701,8.427-11.243,13.099
				c-0.384,0.491-0.747,0.981-1.109,1.493l12.907,12.907c42.091,42.112,42.091,110.592,0,152.704l-12.907,12.907
				c0.363,0.512,0.725,1.003,1.109,1.515c3.52,4.629,7.253,8.939,11.136,12.992c1.088,1.109,2.197,2.219,3.328,3.307
				c4.075,3.947,8.427,7.701,13.099,11.243c0.491,0.384,0.981,0.747,1.493,1.109l12.907-12.907
				c21.056-21.056,48.704-31.573,76.352-31.573s55.296,10.517,76.352,31.573l12.907,12.907c0.512-0.363,1.003-0.725,1.515-1.109
				c4.629-3.52,8.939-7.253,12.992-11.136c1.109-1.088,2.219-2.197,3.307-3.328c3.947-4.075,7.701-8.427,11.243-13.099
				c0.384-0.491,0.747-0.981,1.109-1.493l-12.907-12.907C320.435,290.231,320.435,221.751,362.526,179.639z M256.009,319.991
				c-35.285,0-64-28.715-64-64s28.715-64,64-64s64,28.715,64,64S291.294,319.991,256.009,319.991z"/>
			<path d="M302.187,119.315l3.84-3.861c-15.659-5.589-32.448-8.789-50.027-8.789c-17.557,0-34.347,3.2-50.027,8.789l3.861,3.861
				C235.285,144.766,276.736,144.766,302.187,119.315z"/>
			<path d="M392.685,209.818c-25.451,25.451-25.451,66.901,0,92.352l3.861,3.84c5.589-15.659,8.789-32.448,8.789-50.027
				c0-17.557-3.2-34.347-8.789-50.027L392.685,209.818z"/>
			<path d="M119.332,209.813l-3.861-3.84c-5.589,15.659-8.789,32.448-8.789,50.027c0,17.557,3.2,34.347,8.789,50.027l3.861-3.861
				C144.783,276.715,144.783,235.264,119.332,209.813z"/>
			<path d="M256,0C114.859,0,0,114.837,0,256c0,141.141,114.859,256,256,256c141.163,0,256-114.859,256-256
				C512,114.837,397.163,0,256,0z M429.696,339.157l-8.405,14.229c-0.363,0.619-0.811,1.152-1.173,1.749
				c-3.264,5.376-6.763,10.56-10.517,15.573c-1.195,1.621-2.368,3.264-3.605,4.821c-3.499,4.373-7.189,8.533-11.029,12.587
				c-1.109,1.152-2.069,2.517-3.2,3.627c-1.131,1.131-2.475,2.091-3.627,3.2c-4.053,3.84-8.213,7.552-12.587,11.029
				c-1.557,1.237-3.179,2.389-4.8,3.584c-5.013,3.776-10.219,7.275-15.595,10.539c-0.597,0.363-1.131,0.811-1.749,1.173
				l-14.229,8.405l-0.619-0.597C313.515,441.067,285.589,448,256,448c-29.568,0-57.493-6.933-82.539-18.923l-0.619,0.597
				l-14.251-8.405c-0.597-0.363-1.131-0.811-1.728-1.173c-5.376-3.264-10.56-6.763-15.573-10.517
				c-1.621-1.195-3.264-2.368-4.821-3.605c-4.373-3.499-8.533-7.189-12.587-11.029c-1.152-1.109-2.517-2.069-3.627-3.2
				c-1.131-1.109-2.091-2.475-3.2-3.627c-3.84-4.053-7.552-8.213-11.029-12.587c-1.237-1.557-2.389-3.179-3.584-4.8
				c-3.776-5.013-7.275-10.219-10.539-15.595c-0.363-0.597-0.811-1.131-1.173-1.749l-8.405-14.229l0.597-0.619
				C70.933,313.493,64,285.568,64,256c0-29.589,6.933-57.515,18.923-82.56l-0.597-0.619l8.405-14.229
				c0.363-0.619,0.811-1.152,1.173-1.749c3.264-5.376,6.763-10.56,10.517-15.573c1.195-1.621,2.368-3.264,3.605-4.821
				c3.499-4.373,7.189-8.533,11.029-12.565c1.109-1.173,2.069-2.517,3.2-3.648c1.109-1.131,2.475-2.091,3.627-3.2
				c4.053-3.84,8.213-7.531,12.587-11.029c1.557-1.237,3.179-2.389,4.8-3.584c5.013-3.755,10.219-7.275,15.595-10.539
				c0.597-0.363,1.131-0.811,1.728-1.173l14.251-8.405l0.619,0.619C198.507,70.912,226.432,64,256,64
				c29.589,0,57.515,6.912,82.56,18.923l0.619-0.619l14.229,8.405c0.619,0.363,1.152,0.811,1.749,1.173
				c5.376,3.264,10.56,6.763,15.573,10.517c1.621,1.195,3.264,2.368,4.821,3.605c4.373,3.499,8.533,7.189,12.565,11.029
				c1.173,1.109,2.517,2.069,3.648,3.2c1.131,1.109,2.091,2.475,3.2,3.627c3.84,4.053,7.531,8.213,11.029,12.587
				c1.237,1.557,2.389,3.179,3.584,4.8c3.755,5.013,7.275,10.219,10.539,15.595c0.363,0.597,0.811,1.131,1.173,1.749l8.405,14.229
				l-0.619,0.619C441.088,198.485,448,226.411,448,256c0,29.568-6.912,57.493-18.923,82.539L429.696,339.157z"/>
			<path d="M209.83,392.668l-3.84,3.861c15.659,5.589,32.448,8.789,50.027,8.789c17.557,0,34.347-3.2,50.027-8.789l-3.861-3.861
				C276.732,367.217,235.281,367.217,209.83,392.668z"/>
		</g>
	</g>
</g>
</svg>